<svg width="125" height="24" viewBox="0 0 125 24" fill="none" xmlns="http://www.w3.org/2000/svg">
<path fill-rule="evenodd" clip-rule="evenodd" d="M79.5658 17.4389C73.9964 13.3403 73.1271 13.6675 62.1269 24C72.4594 12.9999 72.7866 12.1339 68.688 6.56108C74.2575 10.6597 75.1268 10.3325 86.1269 0C75.7945 11.0001 75.4672 11.8661 79.5658 17.4389ZM121.269 17.3761C120.655 17.3761 120.182 17.2076 119.851 16.8704C119.521 16.5333 119.356 16.0705 119.356 15.4855V8.14436H116.123V6.62721L119.356 6.62721V2.80295L121.091 2.80295V6.62721L124.608 6.62721V8.14436H121.091V15.2244C121.091 15.664 121.302 15.8854 121.729 15.8854H124.125V17.3794L121.266 17.3794L121.269 17.3761ZM44.1162 13.6906V16.0407V16.044V16.0506L50.6012 13.6477H50.6177V11.2315H50.6012L44.1162 8.81529V11.1654L47.4446 12.428L44.1162 13.6906ZM37.5154 17.7331L41.3298 5.49013L43.5939 5.49013L39.7796 17.7331H37.5154ZM6.50489 8.80543V11.1555V11.1588L3.17642 12.4248L6.50489 13.694L6.50489 16.0474L0.0132216 13.6312H0L0 11.2183H0.0132216L6.50489 8.80543ZM61.3637 17.6835C60.2795 17.6835 59.3276 17.4522 58.5046 16.9894C57.6848 16.5267 57.0469 15.8788 56.5908 15.0426C56.1379 14.2063 55.9099 13.2412 55.9099 12.1405V11.8761C55.9099 10.7622 56.1379 9.78712 56.5908 8.95087C57.0436 8.11462 57.6749 7.46677 58.4814 7.00402C59.2879 6.54128 60.2101 6.3099 61.2513 6.3099C62.2925 6.3099 63.1552 6.52476 63.9319 6.95776C64.7087 7.39075 65.3168 8.00885 65.7564 8.81535C66.1961 9.62185 66.4175 10.5672 66.4175 11.6513V12.4413L57.6452 12.4413C57.6881 13.5982 58.0616 14.5038 58.7657 15.155C59.4697 15.8061 60.3489 16.1333 61.4033 16.1333C62.3255 16.1333 63.0362 15.9218 63.5353 15.4954C64.0344 15.069 64.4145 14.5633 64.6789 13.9783L66.1729 14.7021C65.9515 15.155 65.6474 15.6111 65.2606 16.0639C64.8706 16.5168 64.3682 16.9002 63.7435 17.2076C63.1188 17.515 62.3255 17.6703 61.3571 17.6703L61.3637 17.6835ZM57.6716 11.0233L64.6624 11.0233C64.6029 10.0284 64.2624 9.25165 63.641 8.69305C63.0163 8.13776 62.223 7.8568 61.2546 7.8568C60.2861 7.8568 59.4664 8.13445 58.8351 8.69305C58.2038 9.25165 57.817 10.0284 57.6683 11.0233H57.6716ZM82.6003 6.62732V21.7723L82.6036 21.7756H84.3389V15.6872H84.6463C84.8215 16.0111 85.0694 16.3251 85.3933 16.6325C85.7172 16.9399 86.137 17.1911 86.6592 17.3895C87.1782 17.5878 87.8128 17.6869 88.5598 17.6869C89.4985 17.6869 90.3546 17.4655 91.1214 17.0259C91.8883 16.5863 92.5031 15.9483 92.9559 15.1121C93.4087 14.2758 93.6368 13.2875 93.6368 12.1439V11.8596C93.6368 10.7028 93.4054 9.71118 92.9427 8.89146C92.4799 8.07174 91.8651 7.43711 91.095 6.99089C90.3248 6.54468 89.4787 6.31991 88.5565 6.31991C87.4426 6.31991 86.5733 6.53146 85.9519 6.95785C85.3272 7.38424 84.8777 7.86681 84.6 8.40888H84.2926V6.62732H82.6003ZM90.8107 15.0757C90.1166 15.7897 89.211 16.1434 88.0971 16.1434C86.9997 16.1434 86.094 15.7864 85.3834 15.0757C84.6727 14.3651 84.3158 13.3735 84.3158 12.0976V11.8993C84.3158 10.6235 84.6727 9.63185 85.3834 8.92121C86.094 8.21056 86.9832 7.85359 88.0971 7.85359C89.211 7.85359 90.1133 8.21056 90.8107 8.92121C91.5082 9.63185 91.8552 10.6235 91.8552 11.8993V12.0976C91.8552 13.3735 91.5049 14.3651 90.8107 15.0757ZM101.173 17.6835C100.089 17.6835 99.1371 17.4522 98.3141 16.9894C97.4944 16.5267 96.8565 15.8788 96.4003 15.0426C95.9475 14.2063 95.7194 13.2412 95.7194 12.1405V11.8761C95.7194 10.7622 95.9475 9.78712 96.4003 8.95087C96.8532 8.11462 97.4845 7.46677 98.291 7.00402C99.0975 6.54128 100.02 6.3099 101.061 6.3099C102.102 6.3099 102.965 6.52476 103.741 6.95776C104.518 7.39075 105.126 8.00885 105.566 8.81535C106.006 9.62185 106.227 10.5672 106.227 11.6513V12.4413L97.4547 12.4413C97.4977 13.5982 97.8712 14.5038 98.5752 15.155C99.2793 15.8061 100.158 16.1333 101.213 16.1333C102.135 16.1333 102.846 15.9218 103.345 15.4954C103.844 15.069 104.224 14.5633 104.488 13.9783L105.982 14.7021C105.761 15.155 105.457 15.6111 105.07 16.0639C104.68 16.5168 104.178 16.9002 103.553 17.2076C102.928 17.515 102.135 17.6703 101.167 17.6703L101.173 17.6835ZM97.4812 11.0233H104.472C104.412 10.0284 104.072 9.25165 103.451 8.69305C102.826 8.13776 102.033 7.8568 101.064 7.8568C100.096 7.8568 99.276 8.13445 98.6447 8.69305C98.0133 9.25165 97.6266 10.0284 97.4779 11.0233H97.4812ZM108.785 6.6273V17.3762H110.52V10.8251C110.52 9.9161 110.758 9.24512 111.234 8.81212C111.71 8.37912 112.338 8.16428 113.115 8.16428H114.5V6.58102H113.224C112.58 6.58102 112.061 6.6901 111.664 6.91155C111.267 7.13301 110.977 7.47677 110.785 7.94612H110.477V6.6273H108.785Z" fill="#334155"/>
<g filter="url(#filter0_b_6115_353)">
<path d="M14.1293 10.081C13.8053 10.081 13.5893 9.934 13.4813 9.64L11.1953 3.754C11.2613 3.718 11.3483 3.688 11.4563 3.664C11.5703 3.634 11.6753 3.619 11.7713 3.619C12.2873 3.619 12.6173 3.826 12.7613 4.24L14.0573 7.876L13.8323 8.488L13.9403 8.533L15.4883 4.24C15.6443 3.826 15.9743 3.619 16.4783 3.619C16.5743 3.619 16.6763 3.634 16.7843 3.664C16.8983 3.688 16.9883 3.718 17.0543 3.754L14.7773 9.64C14.6693 9.934 14.4533 10.081 14.1293 10.081ZM19.6731 10.081C19.2771 10.081 18.9171 10.009 18.5931 9.865C18.2691 9.721 18.0141 9.523 17.8281 9.271C17.6421 9.013 17.5491 8.722 17.5491 8.398V7.201C17.5491 6.871 17.6391 6.571 17.8191 6.301C17.9991 6.025 18.2511 5.809 18.5751 5.653C18.8991 5.497 19.2651 5.419 19.6731 5.419C20.0811 5.419 20.4471 5.497 20.7711 5.653C21.0951 5.809 21.3471 6.025 21.5271 6.301C21.7071 6.571 21.7971 6.871 21.7971 7.201V8.398C21.7971 8.722 21.7041 9.013 21.5181 9.271C21.3321 9.523 21.0771 9.721 20.7531 9.865C20.4291 10.009 20.0691 10.081 19.6731 10.081ZM19.6731 9.019C19.9551 9.019 20.1741 8.956 20.3301 8.83C20.4861 8.704 20.5641 8.53 20.5641 8.308V7.264C20.5641 7.03 20.4831 6.841 20.3211 6.697C20.1651 6.553 19.9491 6.481 19.6731 6.481C19.3971 6.481 19.1781 6.553 19.0161 6.697C18.8601 6.841 18.7821 7.03 18.7821 7.264V8.308C18.7821 8.53 18.8601 8.704 19.0161 8.83C19.1721 8.956 19.3911 9.019 19.6731 9.019ZM23.8995 5.077C23.6715 5.077 23.4795 5.011 23.3235 4.879C23.1735 4.741 23.0985 4.564 23.0985 4.348C23.0985 4.132 23.1735 3.958 23.3235 3.826C23.4795 3.688 23.6715 3.619 23.8995 3.619C24.1275 3.619 24.3165 3.688 24.4665 3.826C24.6225 3.958 24.7005 4.132 24.7005 4.348C24.7005 4.564 24.6225 4.741 24.4665 4.879C24.3165 5.011 24.1275 5.077 23.8995 5.077ZM23.2785 6.139C23.2785 5.881 23.3805 5.698 23.5845 5.59C23.7885 5.476 24.0975 5.419 24.5115 5.419V9.361C24.5115 9.619 24.4095 9.805 24.2055 9.919C24.0015 10.027 23.6925 10.081 23.2785 10.081V6.139ZM28.3913 10.081C27.9953 10.081 27.6443 10.009 27.3383 9.865C27.0323 9.721 26.7923 9.523 26.6183 9.271C26.4503 9.013 26.3663 8.722 26.3663 8.398V7.201C26.3663 6.853 26.4503 6.544 26.6183 6.274C26.7923 6.004 27.0323 5.794 27.3383 5.644C27.6443 5.494 27.9923 5.419 28.3823 5.419C28.7483 5.419 29.0723 5.473 29.3543 5.581C29.6363 5.683 29.8553 5.827 30.0113 6.013C30.1733 6.199 30.2543 6.412 30.2543 6.652C30.2543 6.85 30.1763 7.009 30.0203 7.129C29.8643 7.249 29.6573 7.309 29.3993 7.309C29.3213 7.309 29.2643 7.306 29.2283 7.3C29.2283 7.06 29.1533 6.865 29.0033 6.715C28.8533 6.559 28.6583 6.481 28.4183 6.481C28.1783 6.481 27.9803 6.556 27.8243 6.706C27.6743 6.85 27.5993 7.036 27.5993 7.264V8.308C27.5993 8.518 27.6743 8.689 27.8243 8.821C27.9803 8.953 28.1813 9.019 28.4273 9.019C28.6673 9.019 28.8623 8.944 29.0123 8.794C29.1683 8.644 29.2463 8.449 29.2463 8.209C29.2883 8.203 29.3483 8.2 29.4263 8.2C29.6843 8.2 29.8913 8.26 30.0473 8.38C30.2033 8.494 30.2813 8.65 30.2813 8.848C30.2813 9.088 30.2003 9.301 30.0383 9.487C29.8823 9.673 29.6603 9.82 29.3723 9.928C29.0843 10.03 28.7573 10.081 28.3913 10.081ZM33.8231 10.081C33.4511 10.081 33.1061 10.006 32.7881 9.856C32.4761 9.706 32.2271 9.502 32.0411 9.244C31.8551 8.986 31.7621 8.698 31.7621 8.38V7.228C31.7621 6.892 31.8551 6.586 32.0411 6.31C32.2331 6.028 32.4881 5.809 32.8061 5.653C33.1241 5.497 33.4661 5.419 33.8321 5.419C34.1921 5.419 34.5221 5.494 34.8221 5.644C35.1281 5.788 35.3681 5.995 35.5421 6.265C35.7161 6.529 35.8031 6.829 35.8031 7.165V7.651C35.8031 7.795 35.7491 7.918 35.6411 8.02C35.5331 8.116 35.3951 8.164 35.2271 8.164H32.9591V8.29C32.9591 8.53 33.0311 8.728 33.1751 8.884C33.3251 9.034 33.5441 9.109 33.8321 9.109C34.1141 9.109 34.3211 9.049 34.4531 8.929C34.5851 8.803 34.6511 8.647 34.6511 8.461C34.7711 8.449 34.8611 8.443 34.9211 8.443C35.1671 8.443 35.3561 8.494 35.4881 8.596C35.6201 8.698 35.6861 8.848 35.6861 9.046C35.6861 9.208 35.6051 9.37 35.4431 9.532C35.2811 9.694 35.0561 9.826 34.7681 9.928C34.4861 10.03 34.1711 10.081 33.8231 10.081ZM34.6871 7.291V7.165C34.6871 6.925 34.6061 6.736 34.4441 6.598C34.2881 6.454 34.0811 6.382 33.8231 6.382C33.5651 6.382 33.3551 6.454 33.1931 6.598C33.0371 6.736 32.9591 6.925 32.9591 7.165V7.291H34.6871ZM10.7205 13.654C10.7205 13.336 10.8285 13.084 11.0445 12.898C11.2605 12.712 11.5515 12.619 11.9175 12.619L14.8065 17.191L14.9055 17.11L14.5005 16.435V12.619C14.9265 12.619 15.2505 12.7 15.4725 12.862C15.6945 13.024 15.8055 13.261 15.8055 13.573V18.208C15.8055 18.358 15.7575 18.502 15.6615 18.64C15.5715 18.772 15.4485 18.88 15.2925 18.964C15.1365 19.042 14.9715 19.081 14.7975 19.081L11.7195 14.212L11.6205 14.293L12.0255 14.968V18.127C12.0255 18.439 11.9145 18.676 11.6925 18.838C11.4705 19 11.1465 19.081 10.7205 19.081V13.654ZM19.2293 19.081C18.8333 19.081 18.4733 19.009 18.1493 18.865C17.8253 18.721 17.5703 18.523 17.3843 18.271C17.1983 18.013 17.1053 17.722 17.1053 17.398V16.201C17.1053 15.871 17.1953 15.571 17.3753 15.301C17.5553 15.025 17.8073 14.809 18.1313 14.653C18.4553 14.497 18.8213 14.419 19.2293 14.419C19.6373 14.419 20.0033 14.497 20.3273 14.653C20.6513 14.809 20.9033 15.025 21.0833 15.301C21.2633 15.571 21.3533 15.871 21.3533 16.201V17.398C21.3533 17.722 21.2603 18.013 21.0743 18.271C20.8883 18.523 20.6333 18.721 20.3093 18.865C19.9853 19.009 19.6253 19.081 19.2293 19.081ZM19.2293 18.019C19.5113 18.019 19.7303 17.956 19.8863 17.83C20.0423 17.704 20.1203 17.53 20.1203 17.308V16.264C20.1203 16.03 20.0393 15.841 19.8773 15.697C19.7213 15.553 19.5053 15.481 19.2293 15.481C18.9533 15.481 18.7343 15.553 18.5723 15.697C18.4163 15.841 18.3383 16.03 18.3383 16.264V17.308C18.3383 17.53 18.4163 17.704 18.5723 17.83C18.7283 17.956 18.9473 18.019 19.2293 18.019ZM24.7379 19.081C24.2279 19.081 23.8529 18.934 23.6129 18.64C23.3729 18.346 23.2529 17.968 23.2529 17.506V15.409H22.2989C22.2989 15.103 22.3559 14.875 22.4699 14.725C22.5839 14.575 22.7339 14.5 22.9199 14.5H23.2709V13.789C23.2709 13.531 23.3699 13.348 23.5679 13.24C23.7659 13.126 24.0659 13.069 24.4679 13.069V14.5H25.6649C25.6649 14.824 25.6049 15.058 25.4849 15.202C25.3649 15.34 25.1669 15.409 24.8909 15.409H24.4859V17.461C24.4859 17.659 24.5249 17.803 24.6029 17.893C24.6809 17.977 24.8159 18.019 25.0079 18.019C25.2179 18.019 25.4339 17.959 25.6559 17.839C25.7219 17.899 25.7729 17.974 25.8089 18.064C25.8509 18.154 25.8719 18.244 25.8719 18.334C25.8719 18.454 25.8299 18.571 25.7459 18.685C25.6619 18.799 25.5329 18.895 25.3589 18.973C25.1909 19.045 24.9839 19.081 24.7379 19.081ZM29.0997 19.081C28.7277 19.081 28.3827 19.006 28.0647 18.856C27.7527 18.706 27.5037 18.502 27.3177 18.244C27.1317 17.986 27.0387 17.698 27.0387 17.38V16.228C27.0387 15.892 27.1317 15.586 27.3177 15.31C27.5097 15.028 27.7647 14.809 28.0827 14.653C28.4007 14.497 28.7427 14.419 29.1087 14.419C29.4687 14.419 29.7987 14.494 30.0987 14.644C30.4047 14.788 30.6447 14.995 30.8187 15.265C30.9927 15.529 31.0797 15.829 31.0797 16.165V16.651C31.0797 16.795 31.0257 16.918 30.9177 17.02C30.8097 17.116 30.6717 17.164 30.5037 17.164H28.2357V17.29C28.2357 17.53 28.3077 17.728 28.4517 17.884C28.6017 18.034 28.8207 18.109 29.1087 18.109C29.3907 18.109 29.5977 18.049 29.7297 17.929C29.8617 17.803 29.9277 17.647 29.9277 17.461C30.0477 17.449 30.1377 17.443 30.1977 17.443C30.4437 17.443 30.6327 17.494 30.7647 17.596C30.8967 17.698 30.9627 17.848 30.9627 18.046C30.9627 18.208 30.8817 18.37 30.7197 18.532C30.5577 18.694 30.3327 18.826 30.0447 18.928C29.7627 19.03 29.4477 19.081 29.0997 19.081ZM29.9637 16.291V16.165C29.9637 15.925 29.8827 15.736 29.7207 15.598C29.5647 15.454 29.3577 15.382 29.0997 15.382C28.8417 15.382 28.6317 15.454 28.4697 15.598C28.3137 15.736 28.2357 15.925 28.2357 16.165V16.291H29.9637ZM34.5103 19.081C33.8983 19.081 33.4153 18.979 33.0613 18.775C32.7073 18.565 32.5303 18.286 32.5303 17.938C32.5303 17.782 32.5963 17.65 32.7283 17.542C32.8663 17.434 33.0853 17.38 33.3853 17.38C33.4333 17.62 33.5533 17.809 33.7453 17.947C33.9373 18.079 34.1623 18.145 34.4203 18.145C34.7203 18.145 34.9513 18.109 35.1133 18.037C35.2813 17.965 35.3653 17.86 35.3653 17.722C35.3653 17.602 35.2993 17.497 35.1673 17.407C35.0353 17.317 34.7713 17.224 34.3753 17.128C33.9133 17.02 33.5533 16.912 33.2953 16.804C33.0433 16.69 32.8573 16.549 32.7373 16.381C32.6173 16.213 32.5573 15.991 32.5573 15.715C32.5573 15.325 32.7193 15.013 33.0433 14.779C33.3733 14.539 33.8323 14.419 34.4203 14.419C34.9963 14.419 35.4643 14.518 35.8243 14.716C36.1843 14.914 36.3643 15.178 36.3643 15.508C36.3643 15.676 36.3013 15.799 36.1753 15.877C36.0493 15.949 35.8393 15.988 35.5453 15.994C35.4673 15.766 35.3473 15.598 35.1853 15.49C35.0293 15.376 34.8043 15.319 34.5103 15.319C34.3003 15.319 34.1143 15.355 33.9523 15.427C33.7903 15.499 33.7093 15.586 33.7093 15.688C33.7093 15.802 33.7753 15.892 33.9073 15.958C34.0453 16.024 34.2733 16.09 34.5913 16.156C35.2813 16.306 35.7763 16.504 36.0763 16.75C36.3823 16.996 36.5353 17.329 36.5353 17.749C36.5353 18.007 36.4543 18.238 36.2923 18.442C36.1303 18.646 35.8963 18.805 35.5903 18.919C35.2843 19.027 34.9243 19.081 34.5103 19.081Z" fill="#334155"/>
</g>
<defs>
<filter id="filter0_b_6115_353" x="4.72052" y="-2.38098" width="37.8148" height="27.462" filterUnits="userSpaceOnUse" color-interpolation-filters="sRGB">
<feFlood flood-opacity="0" result="BackgroundImageFix"/>
<feGaussianBlur in="BackgroundImageFix" stdDeviation="3"/>
<feComposite in2="SourceAlpha" operator="in" result="effect1_backgroundBlur_6115_353"/>
<feBlend mode="normal" in="SourceGraphic" in2="effect1_backgroundBlur_6115_353" result="shape"/>
</filter>
</defs>
</svg>
